<svg width="103" height="103" viewBox="0 0 103 103" fill="none" xmlns="http://www.w3.org/2000/svg">
<circle cx="51.1918" cy="51.6727" r="51.0355" fill="#0D7375"/>
<mask id="mask0_104_641" style="mask-type:alpha" maskUnits="userSpaceOnUse" x="18" y="19" width="65" height="64">
<rect x="18.5195" y="19" width="63.9381" height="63.9381" fill="white"/>
</mask>
<g mask="url(#mask0_104_641)">
<path d="M21.1836 66.9535C21.5832 62.2025 23.0378 57.829 25.5474 53.8328C28.0552 49.8367 31.3959 46.662 35.5697 44.3087L30.6411 35.7836C30.3747 35.384 30.3081 34.9622 30.4413 34.5182C30.5745 34.0742 30.8631 33.7412 31.3071 33.5192C31.6623 33.2972 32.062 33.2528 32.506 33.386C32.95 33.5192 33.3052 33.7856 33.5716 34.1852L38.5002 42.7103C42.3187 41.1118 46.3148 40.3126 50.4886 40.3126C54.6623 40.3126 58.6584 41.1118 62.477 42.7103L67.4055 34.1852C67.6719 33.7856 68.0271 33.5192 68.4712 33.386C68.9152 33.2528 69.3148 33.2972 69.67 33.5192C70.114 33.7412 70.4026 34.0742 70.5358 34.5182C70.669 34.9622 70.6024 35.384 70.336 35.7836L65.4075 44.3087C69.5812 46.662 72.9228 49.8367 75.4324 53.8328C77.9402 57.829 79.3939 62.2025 79.7935 66.9535H21.1836ZM37.1681 59.6272C38.1006 59.6272 38.8891 59.3049 39.5338 58.6602C40.1768 58.0172 40.4982 57.2296 40.4982 56.2971C40.4982 55.3647 40.1768 54.577 39.5338 53.9341C38.8891 53.2894 38.1006 52.967 37.1681 52.967C36.2357 52.967 35.448 53.2894 34.8051 53.9341C34.1604 54.577 33.838 55.3647 33.838 56.2971C33.838 57.2296 34.1604 58.0172 34.8051 58.6602C35.448 59.3049 36.2357 59.6272 37.1681 59.6272ZM63.809 59.6272C64.7414 59.6272 65.53 59.3049 66.1747 58.6602C66.8176 58.0172 67.1391 57.2296 67.1391 56.2971C67.1391 55.3647 66.8176 54.577 66.1747 53.9341C65.53 53.2894 64.7414 52.967 63.809 52.967C62.8766 52.967 62.0889 53.2894 61.446 53.9341C60.8013 54.577 60.4789 55.3647 60.4789 56.2971C60.4789 57.2296 60.8013 58.0172 61.446 58.6602C62.0889 59.3049 62.8766 59.6272 63.809 59.6272Z" fill="white"/>
</g>
</svg>
