<svg width="124" height="74" viewBox="0 0 124 74" fill="none" xmlns="http://www.w3.org/2000/svg">
<path d="M35.0687 26.8278C35.0687 28.347 35.2333 29.5785 35.5205 30.4817C35.8851 31.4978 36.3241 32.4856 36.8339 33.4372C37.0392 33.7656 37.1211 34.0939 37.1211 34.3816C37.1211 34.7918 36.875 35.2024 36.3414 35.6131L33.7553 37.3371C33.3858 37.5836 33.0163 37.7066 32.6875 37.7066C32.2773 37.7066 31.8666 37.5013 31.456 37.1318C30.9029 36.5374 30.4081 35.8913 29.9784 35.2024C29.5678 34.5051 29.1571 33.7244 28.7057 32.7805C25.5037 36.5569 21.4803 38.4456 16.6365 38.4456C13.1885 38.4456 10.4378 37.4601 8.42607 35.4901C6.41486 33.5191 5.38867 30.8919 5.38867 27.608C5.38867 24.1187 6.62019 21.2862 9.1244 19.1515C11.6281 17.0168 14.9537 15.9494 19.1819 15.9494C20.5776 15.9494 22.0145 16.0724 23.5332 16.2778C25.0523 16.4831 26.6122 16.8114 28.2544 17.1809V14.1842C28.2544 11.064 27.5972 8.88863 26.3245 7.61595C25.0112 6.34326 22.7941 5.72726 19.6333 5.72726C18.1964 5.72726 16.7189 5.89191 15.1997 6.26142C13.681 6.63044 12.203 7.08227 10.7661 7.65711C10.1094 7.94429 9.61691 8.10846 9.32925 8.19079C9.04207 8.27312 8.83674 8.3138 8.67257 8.3138C8.09773 8.3138 7.81055 7.90313 7.81055 7.04111V5.02941C7.81055 4.37273 7.89288 3.88022 8.09773 3.59304C8.30306 3.30538 8.67257 3.0182 9.24741 2.73103C10.6843 1.99202 12.4083 1.37601 14.4195 0.883501C16.4317 0.349826 18.5664 0.103812 20.8241 0.103812C25.7095 0.103812 29.2811 1.21184 31.5799 3.42887C33.8376 5.64542 34.9873 9.01164 34.9873 13.5275V26.8278H35.0697H35.0687ZM18.4017 33.0677C19.7567 33.0677 21.1524 32.8217 22.63 32.3287C24.108 31.8362 25.4218 30.933 26.5299 29.7015C27.187 28.9218 27.6796 28.0598 27.9256 27.0743C28.1721 26.0893 28.3362 24.8984 28.3362 23.5027V21.7787C27.0913 21.4757 25.8304 21.2427 24.5593 21.0808C23.2795 20.9183 21.9907 20.836 20.7006 20.8343C17.9499 20.8343 15.9387 21.368 14.5842 22.4765C13.2292 23.585 12.5725 25.1449 12.5725 27.1973C12.5725 29.1267 13.065 30.5635 14.0912 31.549C15.0767 32.5752 16.5135 33.0677 18.4017 33.0677ZM51.3661 37.5013C50.6271 37.5013 50.1346 37.3783 49.8063 37.0906C49.4779 36.8446 49.1903 36.2698 48.9442 35.4901L39.2974 3.75721C39.0504 2.93588 38.9274 2.4022 38.9274 2.11502C38.9274 1.45834 39.2558 1.08835 39.9129 1.08835H43.9358C44.7155 1.08835 45.2497 1.21184 45.5369 1.49902C45.8652 1.74552 46.1117 2.32036 46.3577 3.10005L53.2543 30.2763L59.6584 3.10005C59.8638 2.27919 60.1103 1.74552 60.4381 1.49902C60.767 1.25301 61.3418 1.08884 62.0808 1.08884H65.3647C66.1444 1.08884 66.6786 1.21184 67.0064 1.49902C67.3352 1.74552 67.6224 2.32036 67.7866 3.10005L74.273 30.6047L81.3745 3.10005C81.6205 2.27919 81.9082 1.74552 82.1953 1.49902C82.5237 1.25301 83.0574 1.08884 83.7964 1.08884H87.6139C88.2711 1.08884 88.6406 1.41718 88.6406 2.11502C88.6406 2.32036 88.5994 2.52569 88.5583 2.7717C88.5171 3.0182 88.4353 3.34654 88.2711 3.79838L78.3773 35.5308C78.1313 36.3521 77.8441 36.8858 77.5153 37.1318C77.1869 37.3783 76.6532 37.5425 75.9559 37.5425H72.4255C71.6453 37.5425 71.1116 37.4194 70.7828 37.1318C70.4545 36.8446 70.1673 36.3109 70.0031 35.4901L63.6397 9.01164L57.3179 35.4484C57.1131 36.2698 56.8666 36.8034 56.5382 37.0906C56.2099 37.3783 55.635 37.5013 54.8965 37.5013H51.3656H51.3661ZM104.117 38.6098C101.982 38.6098 99.8478 38.3633 97.7954 37.8708C95.7426 37.3783 94.142 36.8441 93.0747 36.2291C92.4175 35.8591 91.9657 35.4489 91.802 35.0794C91.6421 34.7171 91.5582 34.3258 91.5555 33.9297V31.8362C91.5555 30.9742 91.8838 30.5635 92.4998 30.5635C92.7512 30.5644 93.0008 30.6061 93.2388 30.687C93.4848 30.7693 93.8544 30.933 94.265 31.0972C95.7149 31.7349 97.2286 32.2166 98.7804 32.534C100.388 32.8604 102.025 33.0254 103.666 33.0266C106.252 33.0266 108.264 32.5752 109.659 31.672C111.055 30.7688 111.794 29.4555 111.794 27.7721C111.794 26.6229 111.424 25.6786 110.685 24.8984C109.946 24.1187 108.551 23.4209 106.54 22.7637L100.587 20.9167C97.5901 19.9723 95.3735 18.5766 94.0185 16.7291C92.664 14.9228 91.9661 12.9115 91.9661 10.7768C91.9661 9.0528 92.3357 7.53362 93.0747 6.21977C93.8132 4.90641 94.7987 3.75721 96.0302 2.85403C97.2617 1.90969 98.6574 1.21184 100.3 0.71933C101.941 0.226819 103.665 0.0214844 105.472 0.0214844C106.375 0.0214844 107.319 0.0626481 108.222 0.185655C109.167 0.308662 110.029 0.472832 110.891 0.637003C111.712 0.842337 112.492 1.04767 113.231 1.29417C113.97 1.54018 114.544 1.78668 114.955 2.0327C115.53 2.36152 115.94 2.68986 116.186 3.05937C116.433 3.38771 116.556 3.83906 116.556 4.4139V6.34326C116.556 7.20528 116.228 7.65711 115.612 7.65711C115.283 7.65711 114.75 7.49246 114.052 7.16412C111.712 6.09676 109.084 5.56309 106.17 5.56309C103.83 5.56309 101.982 5.93259 100.71 6.71277C99.4376 7.49246 98.7804 8.6833 98.7804 10.3662C98.7804 11.5158 99.1911 12.5009 100.012 13.281C100.833 14.0607 102.352 14.8409 104.528 15.5388L110.357 17.3863C113.313 18.3306 115.447 19.644 116.72 21.3269C117.993 23.0102 118.609 24.9396 118.609 27.0743C118.609 28.8395 118.239 30.4405 117.541 31.8362C116.802 33.2319 115.817 34.4634 114.544 35.4489C113.272 36.4751 111.753 37.2141 109.988 37.7478C108.14 38.3226 106.211 38.6098 104.117 38.6098Z" fill="#252F3E"/>
<path d="M111.876 58.5604C98.3702 68.5361 78.7473 73.8317 61.8755 73.8317C38.2296 73.8317 16.9242 65.0875 0.832087 50.5553C-0.440598 49.4061 0.708596 47.8462 2.2273 48.7489C19.6333 58.8481 41.1033 64.9645 63.3123 64.9645C78.2959 64.9645 94.7575 61.8448 109.906 55.4407C112.163 54.414 114.093 56.9187 111.876 58.5604ZM117.5 52.1563C115.776 49.9398 106.088 51.089 101.695 51.6226C100.381 51.7873 100.176 50.6376 101.367 49.7756C109.084 44.3565 121.77 45.9169 123.247 47.7227C124.725 49.5703 122.836 62.255 115.612 68.3307C114.504 69.2751 113.436 68.7826 113.929 67.5511C115.57 63.4865 119.224 54.3322 117.5 52.1563Z" fill="#FF9900"/>
</svg>
