<svg width="58" height="74" viewBox="0 0 58 74" fill="none" xmlns="http://www.w3.org/2000/svg">
<path d="M57.6439 18.6594V46.6365C57.6439 56.2768 56.9384 60.9001 54.8227 64.8969C52.863 68.7378 50.2768 71.1668 44.948 73.8316L33.7405 68.5024C39.0701 65.9948 41.6563 63.8006 43.3017 60.4295C45.0262 56.9819 45.5753 52.9846 45.5753 42.4834V18.6594H57.6439ZM38.444 0.0209961V55.8852C32.253 57.0604 27.7075 57.5306 22.7703 57.5306C8.03656 57.5306 0.356445 50.8699 0.356445 38.095C0.356445 25.7908 8.50717 17.7976 21.124 17.7976C23.0833 17.7976 24.5725 17.9539 26.3751 18.4241V0.0218421H38.4444L38.444 0.0209961ZM22.3001 27.5148C16.1873 27.5148 12.6603 31.2767 12.6603 37.8593C12.6603 44.2864 16.0306 47.8126 22.222 47.8126C23.5535 47.8126 24.651 47.7345 26.3751 47.5V28.1413C24.9645 27.6715 23.7892 27.5148 22.3001 27.5148ZM57.6439 0.0852085V12.468H45.5753V0.0856307H57.6439V0.0852085Z" fill="#092E20"/>
</svg>
