<svg width="104" height="74" viewBox="0 0 104 74" fill="none" xmlns="http://www.w3.org/2000/svg">
<path d="M101.029 28.1868C98.7259 26.5886 93.4476 25.9893 89.3213 26.7884C88.8419 22.7931 86.6344 19.2976 82.7957 16.2012L80.5887 14.6031L79.0529 16.9004C77.134 19.8969 76.1743 24.092 76.462 28.0873C76.5579 29.4852 77.0377 31.9823 78.4772 34.1797C77.134 34.9788 74.3508 35.9776 70.7043 35.9776H1.3217L1.12993 36.7767C0.457915 40.7716 0.457915 53.2566 8.32708 62.8449C14.2769 70.136 23.1057 73.8316 34.7173 73.8316C59.8598 73.8316 78.4772 61.7458 87.2102 39.8727C90.6649 39.9725 98.0542 39.8727 101.797 32.3814C101.893 32.1817 102.085 31.7821 102.756 30.2843L103.14 29.4852L101.029 28.1868ZM56.789 0.0209961H46.2334V10.0089H56.789V0.0209961ZM56.789 12.0065H46.2334V21.9944H56.789V12.0061V12.0065ZM44.3137 12.0065H33.7581V21.9944H44.3137V12.0061V12.0065ZM31.8383 12.0065H21.2823V21.9944H31.8383V12.0061V12.0065ZM19.3629 23.9921H8.80692V33.98H19.3625V23.9917L19.3629 23.9921ZM31.8383 23.9921H21.2823V33.98H31.8383V23.9917V23.9921ZM44.3137 23.9921H33.7581V33.98H44.3137V23.9917V23.9921ZM56.7894 23.9921H46.233V33.98H56.7894V23.9917V23.9921ZM69.2648 23.9921H58.7084V33.98H69.2648V23.9917V23.9921Z" fill="#2396ED"/>
</svg>
