<svg width="49" height="49" viewBox="0 0 49 49" fill="none" xmlns="http://www.w3.org/2000/svg">
<path d="M24.1955 48.9592C37.5583 48.9592 48.391 38.1265 48.391 24.7637C48.391 11.4009 37.5583 0.568237 24.1955 0.568237C10.8327 0.568237 0 11.4009 0 24.7637C0 38.1265 10.8327 48.9592 24.1955 48.9592Z" fill="#0D7375"/>
<path d="M11.9172 14.7318H36.4971C36.9296 14.7318 37.338 14.912 37.6264 15.2003C37.9147 15.4887 38.0949 15.8851 38.0949 16.3296V33.2208C38.0949 33.5452 37.9988 33.8576 37.8186 34.1098C37.7825 34.1939 37.7345 34.266 37.6744 34.3381C37.6264 34.3861 37.5783 34.4102 37.5303 34.4462C37.2539 34.6745 36.8935 34.8186 36.5091 34.8186H11.9172C11.4847 34.8186 11.0762 34.6384 10.7879 34.3501C10.4995 34.0618 10.3193 33.6653 10.3193 33.2208V16.3296C10.3193 15.8851 10.4995 15.4887 10.7879 15.2003C11.0762 14.912 11.4726 14.7318 11.9172 14.7318ZM11.5447 32.5481L20.1585 23.9102L11.5447 16.8823V32.5481ZM21.1076 24.6791L12.2295 33.5812H36.1126L27.631 24.6791L24.8318 27.0578C24.6156 27.25 24.2792 27.25 24.0509 27.0698L21.1076 24.6791ZM28.544 23.8862L36.8575 32.6081V16.8102L28.544 23.8862ZM12.3256 15.9572L24.4113 25.8204L35.9805 15.9572H12.3256Z" fill="white"/>
</svg>
