<svg width="49" height="39" viewBox="0 0 49 39" fill="none" xmlns="http://www.w3.org/2000/svg">
<path d="M5.29709 38.3768C3.97789 38.3768 2.84898 37.9074 1.91035 36.9688C0.970115 36.0286 0.5 34.8989 0.5 33.5797V4.79709C0.5 3.47789 0.970115 2.34898 1.91035 1.41035C2.84898 0.470115 3.97789 0 5.29709 0H43.6738C44.993 0 46.1228 0.470115 47.063 1.41035C48.0016 2.34898 48.4709 3.47789 48.4709 4.79709V33.5797C48.4709 34.8989 48.0016 36.0286 47.063 36.9688C46.1228 37.9074 44.993 38.3768 43.6738 38.3768H5.29709ZM24.4855 21.5869L5.29709 9.59419V33.5797H43.6738V9.59419L24.4855 21.5869ZM24.4855 16.7898L43.6738 4.79709H5.29709L24.4855 16.7898ZM5.29709 9.59419V4.79709V33.5797V9.59419Z" fill="white"/>
</svg>
