<svg width="40" height="39" viewBox="0 0 40 39" fill="none" xmlns="http://www.w3.org/2000/svg">
<path fill-rule="evenodd" clip-rule="evenodd" d="M0.670899 3.25828C0.670899 2.39413 1.01418 1.56537 1.62522 0.95433C2.23627 0.343286 3.06502 4.34374e-06 3.92917 4.34374e-06H36.4091C36.8373 -0.000695089 37.2615 0.0830795 37.6573 0.246532C38.0532 0.409984 38.4129 0.649903 38.7158 0.952555C39.0188 1.25521 39.2591 1.61465 39.423 2.01029C39.5869 2.40594 39.6711 2.83003 39.6709 3.25828V35.7382C39.6714 36.1665 39.5874 36.5907 39.4237 36.9866C39.2601 37.3824 39.02 37.7421 38.7172 38.045C38.4144 38.348 38.0548 38.5883 37.6591 38.7522C37.2634 38.916 36.8392 39.0002 36.4109 39H3.92917C3.50114 39 3.0773 38.9157 2.68187 38.7518C2.28645 38.588 1.92718 38.3478 1.6246 38.045C1.32202 37.7423 1.08205 37.3829 0.918411 36.9874C0.754772 36.5919 0.670666 36.168 0.670899 35.74V3.25828ZM16.1078 14.8696H21.3888V17.5216C22.151 15.9971 24.101 14.625 27.0314 14.625C32.6491 14.625 33.9804 17.6617 33.9804 23.2334V33.5542H28.2953V24.5026C28.2953 21.3295 27.533 19.539 25.5972 19.539C22.9115 19.539 21.7947 21.4695 21.7947 24.5026V33.5542H16.1078V14.8696ZM6.35781 33.3113H12.0447V14.625H6.35781V33.3095V33.3113ZM12.8584 8.53037C12.8691 9.01729 12.7825 9.50144 12.6035 9.95442C12.4246 10.4074 12.157 10.8201 11.8164 11.1682C11.4759 11.5164 11.0692 11.793 10.6203 11.9819C10.1713 12.1707 9.68919 12.268 9.20215 12.268C8.71511 12.268 8.23298 12.1707 7.78405 11.9819C7.33512 11.793 6.92843 11.5164 6.58785 11.1682C6.24728 10.8201 5.97967 10.4074 5.80075 9.95442C5.62182 9.50144 5.53518 9.01729 5.5459 8.53037C5.56695 7.57461 5.9614 6.66509 6.64479 5.99658C7.32817 5.32808 8.24616 4.95374 9.20215 4.95374C10.1581 4.95374 11.0761 5.32808 11.7595 5.99658C12.4429 6.66509 12.8374 7.57461 12.8584 8.53037Z" fill="white"/>
</svg>
