<svg width="74" height="74" viewBox="0 0 74 74" fill="none" xmlns="http://www.w3.org/2000/svg">
<path d="M0.0947266 0.0209961H73.9054V73.8316H0.0947266V0.0209961Z" fill="#F5DE19"/>
<path d="M49.6764 57.6848C50.3052 58.9622 51.2823 60.0359 52.495 60.7822C53.7076 61.5284 55.1064 61.9168 56.5302 61.9025C59.4035 61.9025 61.2409 60.4658 61.2409 58.4756C61.2409 56.1031 59.3535 55.2543 56.1901 53.8703L54.4556 53.127C49.447 50.9944 46.1255 48.324 46.1255 42.6775C46.1255 37.4765 50.0797 33.5144 56.2824 33.5144C58.2903 33.3694 60.2965 33.8188 62.0507 34.8065C63.8049 35.7943 65.2294 37.2766 66.1467 39.0687L60.7242 42.5351C60.371 41.6466 59.7561 40.8863 58.9609 40.3553C58.1658 39.8242 57.2279 39.5475 56.2719 39.5616C55.8547 39.5199 55.4335 39.5655 55.0349 39.6955C54.6364 39.8255 54.2693 40.0372 53.9571 40.3169C53.6448 40.5967 53.3943 40.9384 53.2214 41.3203C53.0486 41.7022 52.9572 42.1159 52.953 42.5351C52.953 44.615 54.2421 45.4586 57.2182 46.7529L58.9528 47.4963C64.8471 50.0243 68.1791 52.5997 68.1791 58.3912C68.1791 64.6362 63.2733 68.0578 56.6857 68.0578C54.119 68.2213 51.5597 67.6386 49.3168 66.3799C47.0739 65.1211 45.2432 63.2402 44.0457 60.9641L49.6764 57.6848ZM25.1739 58.2858C26.2626 60.2181 27.2537 61.8524 29.6368 61.8524C31.9144 61.8524 33.3537 60.9614 33.3537 57.495V33.9098H40.2892V57.5872C40.2892 64.768 36.0715 68.0367 29.932 68.0367C27.7618 68.1553 25.6066 67.6145 23.7495 66.4853C21.8925 65.3561 20.4206 63.6914 19.5273 61.7101L25.1739 58.2858Z" fill="black"/>
</svg>
