<svg width="49" height="50" viewBox="0 0 49 50" fill="none" xmlns="http://www.w3.org/2000/svg">
<path d="M24.1955 49.3502C37.5583 49.3502 48.391 38.5175 48.391 25.1547C48.391 11.7919 37.5583 0.959229 24.1955 0.959229C10.8327 0.959229 0 11.7919 0 25.1547C0 38.5175 10.8327 49.3502 24.1955 49.3502Z" fill="#0D7375"/>
<path d="M24.5083 40.1604C24.2199 40.1604 23.9436 40.0763 23.6913 39.9201C21.1925 38.3223 19.03 36.4001 17.264 34.1896C14.9334 31.2703 13.4317 28.0146 12.9151 24.7709C12.3625 21.383 12.9271 18.2595 14.5369 15.7246C15.1977 14.6794 16.0507 13.7423 17.0478 12.9494C19.3664 11.0993 22.0214 10.1382 24.6765 10.1503C27.3435 10.1743 29.8664 11.1954 31.9808 13.1176C32.7256 13.8024 33.3864 14.5953 33.927 15.4963C35.6209 18.2835 36.1135 21.9356 35.3085 25.792C34.5757 29.3721 32.7737 32.9161 30.2268 35.7994L29.9985 36.0637C28.6169 37.5774 27.0552 38.8749 25.3612 39.8961C25.109 40.0763 24.8086 40.1604 24.5083 40.1604ZM24.6044 11.9163C22.3698 11.9163 20.1353 12.7452 18.153 14.331C17.3121 15.0038 16.6033 15.7847 16.0386 16.6737C14.6691 18.8361 14.1885 21.5392 14.6691 24.4825C15.1376 27.4259 16.5192 30.4053 18.6576 33.0843C20.2674 35.1026 22.2257 36.8686 24.5083 38.3463C25.9379 37.4693 27.2714 36.3761 28.4608 35.1146L28.689 34.8623C31.1398 32.1713 32.8818 28.8195 33.5786 25.4436C34.2874 22.0197 33.8669 18.8241 32.4132 16.4214C31.9567 15.6765 31.4041 15.0038 30.7794 14.4391C29.0014 12.8173 26.887 11.9523 24.6524 11.9283C24.6404 11.9163 24.6164 11.9163 24.6044 11.9163ZM24.2079 27.9304C20.8081 27.9304 18.0449 25.1673 18.0449 21.7675C18.0449 20.1216 18.6816 18.5838 19.835 17.4185C21.0003 16.2532 22.55 15.6044 24.1959 15.6044C27.5958 15.6044 30.3589 18.3676 30.3589 21.7675C30.3709 25.1673 27.6078 27.9304 24.2079 27.9304ZM24.2079 17.3825C23.0306 17.3825 21.9253 17.839 21.0964 18.6679C20.2674 19.4969 19.8109 20.6021 19.8229 21.7675C19.8229 24.1942 21.7932 26.1644 24.2079 26.1644C26.6347 26.1644 28.6049 24.1942 28.6049 21.7675C28.5929 19.3527 26.6227 17.3825 24.2079 17.3825Z" fill="white"/>
</svg>
