<?xml version="1.0" encoding="utf-8"?>
<!-- Generator: Adobe Illustrator 15.0.0, SVG Export Plug-In . SVG Version: 6.00 Build 0)  -->
<!DOCTYPE svg PUBLIC "-//W3C//DTD SVG 1.1//EN" "http://www.w3.org/Graphics/SVG/1.1/DTD/svg11.dtd">
<svg version="1.1" id="Layer_1" xmlns="http://www.w3.org/2000/svg" xmlns:xlink="http://www.w3.org/1999/xlink" x="0px" y="0px"
	 width="523.232px" height="513.095px" viewBox="0 0 523.232 513.095" enable-background="new 0 0 523.232 513.095"
	 xml:space="preserve">
<g>
	<path fill-rule="evenodd" clip-rule="evenodd" fill="#084D4D" d="M259.968,87.417c55.257-3.558,98.979,19.007,127.775,45.266
		c29.16,26.586,51.406,64.616,55.01,117.463c3.744,54.933-18.405,97.367-45.266,126.63c-26.943,29.352-65.255,53.404-116.892,55.58
		c-55.451,2.338-97.605-17.863-127.777-45.266c-30.212-27.438-51.294-64.49-55.007-117.463
		c-3.834-54.697,19.246-98.057,45.266-126.631C170.358,113.039,206.107,90.885,259.968,87.417z M198.658,119.504
		c-17.534,9.003-33.021,20.954-44.692,33.807c-23.272,25.625-44.025,66.151-40.683,115.171
		c3.354,49.184,22.842,80.396,50.423,106.576c26.833,25.471,66.461,43.996,115.745,41.83c46.568-2.049,81.732-23.791,106.575-50.424
		c24.411-26.17,44.357-65.541,41.255-114.599c-3.026-47.899-23.62-82.781-49.85-107.149c-26.047-24.2-66.003-45.03-115.742-41.828
		C238.723,104.366,215.937,110.633,198.658,119.504z"/>
	<path fill-rule="evenodd" clip-rule="evenodd" fill="#FFFFFF" d="M261.688,102.888c49.739-3.202,89.695,17.628,115.742,41.828
		c26.229,24.369,46.823,59.25,49.85,107.149c3.103,49.058-16.844,88.429-41.255,114.599
		c-24.843,26.633-60.007,48.375-106.575,50.424c-49.283,2.166-88.911-16.359-115.745-41.83
		c-27.581-26.18-47.069-57.393-50.423-106.576c-3.343-49.02,17.41-89.546,40.683-115.171c11.672-12.853,27.158-24.804,44.692-33.807
		C215.937,110.633,238.723,104.366,261.688,102.888z M355.084,380.216c35.063-25.508,63.409-65.332,63.029-121.475
		c-0.314-46.661-19.611-80.167-45.838-105.431c-25.609-24.667-61.505-44.139-110.587-41.255
		c-40.913,2.403-75.998,21.979-98.555,45.839c-22.625,23.932-40.683,58.05-40.683,101.419c0,53.045,26.508,92.43,56.726,116.318
		c1.693,1.338,3.606,4.197,6.303,3.438c0-25.348,0-49.041,0-73.344c0-25.107-2.583-49.928,3.439-69.904
		c5.635-18.696,17.278-32.945,30.368-42.975c13.281-10.177,31.753-18.706,56.153-17.189c42.654,2.649,76.144,35.875,79.072,76.781
		c1.477,20.608,0,43.448,0,65.321c0,15.25,1.807,27.26-9.741,28.65c-14.603,1.754-15.253-10.877-14.325-25.785
		c-13.302,10.875-30.941,22.529-53.86,24.066c-26.043,1.744-47.463-8.406-60.737-19.482c-2.026-1.691-4.173-5.195-5.729-4.012
		c0,24.447,0,48.896,0,73.344C258.158,419.451,322.36,404.021,355.084,380.216z M234.757,210.61
		c-14.139,10.244-26.649,29.476-24.638,55.581c2.494,32.375,29.62,54.15,59.018,54.434c33.659,0.324,64.057-26.41,61.309-64.748
		c-2.329-32.493-28.147-56.885-62.454-55.58C252.859,200.872,243.419,204.334,234.757,210.61z"/>
	<path fill-rule="evenodd" clip-rule="evenodd" fill="#117375" d="M210.119,394.541c0-24.447,0-48.896,0-73.344
		c1.557-1.184,3.703,2.32,5.729,4.012c13.274,11.076,34.694,21.227,60.737,19.482c22.919-1.537,40.559-13.191,53.86-24.066
		c-0.928,14.908-0.277,27.539,14.325,25.785c11.548-1.391,9.741-13.4,9.741-28.65c0-21.873,1.477-44.713,0-65.321
		c-2.929-40.906-36.418-74.131-79.072-76.781c-24.4-1.516-42.872,7.013-56.153,17.189c-13.09,10.03-24.733,24.279-30.368,42.975
		c-6.022,19.977-3.439,44.797-3.439,69.904c0,24.303,0,47.996,0,73.344c-2.697,0.76-4.609-2.1-6.303-3.438
		c-30.217-23.889-56.726-63.273-56.726-116.318c0-43.369,18.057-77.487,40.683-101.419c22.558-23.861,57.643-43.436,98.555-45.839
		c49.082-2.883,84.978,16.589,110.587,41.255c26.227,25.264,45.523,58.77,45.838,105.431c0.38,56.143-27.966,95.967-63.029,121.475
		C322.36,404.021,258.158,419.451,210.119,394.541z"/>
	<path fill-rule="evenodd" clip-rule="evenodd" fill="#FFFFFF" d="M265.599,130.524c13.734-1.274,21.153,14.734,12.32,24.646
		c-4.888,5.481-15.729,6.452-21.565,0.616C247.652,147.083,253.075,131.686,265.599,130.524z"/>
	<path fill-rule="evenodd" clip-rule="evenodd" fill="#084D4D" d="M267.991,200.296c34.307-1.305,60.125,23.087,62.454,55.58
		c2.748,38.338-27.649,65.072-61.309,64.748c-29.398-0.283-56.524-22.059-59.018-54.434c-2.011-26.105,10.499-45.337,24.638-55.581
		C243.419,204.334,252.859,200.872,267.991,200.296z"/>
	<path fill-rule="evenodd" clip-rule="evenodd" fill="#FFFFFF" d="M304.773,231.147c0,3.898,0,7.796,0,11.695
		c-5.93-0.048-11.768-0.001-17.43,0.22c-0.896,9.293-1.634,20.327-1.546,29.786c0.063,6.789,1.974,14.453,8.825,14.563
		c3.021,0.047,5.606-2.078,6.62-3.752c1.043-1.719,1.114-6.289,2.869-6.396c2.828-0.174,0.833,7.871,0.441,9.045
		c-1.502,4.5-4.949,9.744-7.944,11.693c-2.142,1.395-6.901,2.678-10.589,1.326c-3.151-1.156-6.404-5.48-7.724-8.607
		c-2.57-6.088-2.077-15.75-1.544-24.049c0.547-8.563,2.114-15.583,2.206-23.608c-4.486-0.515-9.929-0.074-14.783-0.22
		c-2.058,13.206-3.931,30.51-6.397,43.688c-0.771,4.098-0.86,7.844-2.87,10.59c-3.662,5.008-13.609,4.432-13.899-3.531
		c-0.044-1.168,0.259-2.283,0.661-3.309c1.704-4.344,6.79-7.799,8.604-11.914c2.146-4.871,2.417-11.451,3.09-16.99
		c0.738-6.082,1.403-11.744,1.765-18.093c-5.699-1.309-10.642,0.002-13.68,2.426c-2.409,1.924-3.234,5.532-6.398,5.737
		c-0.479-1.982,1.163-3.692,1.985-5.517c0.984-2.181,1.485-4.545,2.647-6.398c2.056-3.273,6.937-7.75,10.813-8.385
		c4.043-0.661,9.106,0,13.68,0C277.233,231.147,291.858,231.147,304.773,231.147z"/>
</g>
</svg>