<svg width="49" height="49" viewBox="0 0 49 49" fill="none" xmlns="http://www.w3.org/2000/svg">
<path d="M24.1955 48.5682C37.5583 48.5682 48.391 37.7355 48.391 24.3727C48.391 11.0099 37.5583 0.177246 24.1955 0.177246C10.8327 0.177246 0 11.0099 0 24.3727C0 37.7355 10.8327 48.5682 24.1955 48.5682Z" fill="#0D7375"/>
<path d="M36.3171 29.4421C36.2811 29.418 36.245 29.394 36.209 29.37L31.6438 26.739L31.5717 26.703C31.5477 26.6909 31.5237 26.6789 31.4996 26.6669C29.5895 25.7779 28.268 27.5199 27.4751 28.5651C27.3309 28.7453 27.1387 29.0096 27.0065 29.1417C26.8864 29.2619 26.8143 29.3219 26.7543 29.358C24.9522 28.4209 23.4505 27.3157 22.1771 25.9581C21.1199 24.8288 20.1828 23.5434 19.2698 21.8855C19.3418 21.6813 19.9065 21.2728 20.1467 21.0926C20.351 20.9364 20.5432 20.8043 20.7114 20.6601C21.3721 20.1675 21.8166 19.663 22.0569 19.1103C22.4053 18.2934 22.2972 17.4885 21.7446 16.7557L18.8493 11.8541C18.633 11.4697 18.2366 11.2174 17.8041 11.1813C16.0141 11.0251 14.5003 11.4336 13.299 12.4067C12.1096 13.3558 11.3287 14.8094 11.0404 16.6115C10.6199 19.2665 11.2687 22.2699 12.9386 25.2974C14.6085 28.3008 17.2394 31.3042 20.1828 33.5267C20.8796 34.0433 21.6004 34.4878 22.2251 34.8843L22.4654 35.0404C24.1113 36.0616 25.4928 36.7223 26.8023 37.1308C27.8355 37.4552 28.8446 37.6114 29.8418 37.6114C30.3103 37.6114 30.7908 37.5753 31.2594 37.5032C32.4487 37.335 33.3738 37.0707 34.1667 36.7103C35.2839 36.2058 36.1369 35.4489 36.7016 34.4638C37.1941 33.6108 37.4704 32.6497 37.4704 31.8208C37.4704 30.7996 37.074 29.9827 36.3171 29.4421ZM35.4281 33.7309C35.0196 34.4518 34.407 34.9804 33.566 35.3648C32.8932 35.6772 32.1003 35.8814 31.0551 36.0496C29.7817 36.2298 28.5683 36.1337 27.2468 35.7252C26.0575 35.3648 24.796 34.7401 23.2583 33.803L23.018 33.6469C22.3813 33.2504 21.7205 32.8299 21.0718 32.3614C18.2966 30.259 15.7978 27.4358 14.236 24.6006C12.7223 21.8735 12.1216 19.1944 12.4941 16.8638C12.6502 15.8666 13.0827 14.4971 14.224 13.5841C14.9929 12.9714 15.942 12.659 17.0833 12.659C17.2515 12.659 17.4196 12.671 17.5999 12.683L20.4951 17.5846L20.5432 17.6567C20.7955 17.9811 20.8435 18.2454 20.6994 18.5697C20.5672 18.8701 20.2789 19.1944 19.8224 19.5188L19.7743 19.5548C19.6422 19.663 19.474 19.7951 19.2818 19.9273C18.585 20.4318 17.4197 21.2848 17.8882 22.4621L17.9242 22.5342C18.9334 24.3483 19.9425 25.7659 21.1078 26.9913C22.5255 28.493 24.1833 29.7184 26.2016 30.7516C26.526 30.9077 26.8864 30.9198 27.2108 30.7996C27.4871 30.6915 27.7514 30.4993 28.0637 30.1989C28.2199 30.0428 28.4001 29.8265 28.6644 29.4661C29.6255 28.2047 30.1781 27.6881 30.8749 28.0125C30.899 28.0245 30.923 28.0365 30.947 28.0485L35.4521 30.6434L35.4762 30.6555C35.8366 30.8957 36.0048 31.2922 36.0168 31.8208C36.0048 32.3974 35.8005 33.0822 35.4281 33.7309Z" fill="white"/>
</svg>
