<svg width="72" height="74" viewBox="0 0 72 74" fill="none" xmlns="http://www.w3.org/2000/svg">
<path d="M71.6073 44.2352C71.177 42.9319 70.0498 42.0242 68.5921 41.8064C67.9047 41.7038 67.1176 41.7475 66.186 41.9395C64.5623 42.2745 63.3578 42.4021 62.4786 42.4268C65.7969 36.8243 68.4951 30.4356 70.0484 24.4217C72.5602 14.6973 71.2179 10.2672 69.6495 8.26343C65.4986 2.95957 59.4427 0.11029 52.1367 0.0231069C48.2392 -0.0245493 44.8178 0.744958 43.0329 1.29833C41.3711 1.00511 39.5843 0.841392 37.7095 0.811116C34.195 0.75505 31.0897 1.52119 28.4364 3.09581C26.9675 2.59907 24.6099 1.8988 21.8873 1.45195C15.484 0.400712 10.3231 1.21984 6.54819 3.88662C1.97712 7.11547 -0.141897 12.7254 0.250005 20.5607C0.374472 23.0483 1.76603 30.6173 3.9571 37.7954C5.21634 41.9213 6.55913 45.3475 7.94816 47.9798C9.91805 51.7124 12.0259 53.9105 14.3921 54.6999C15.7184 55.1417 18.1281 55.4512 20.6626 53.3403C20.9838 53.7294 21.4124 54.116 21.9812 54.4751C22.7036 54.9306 23.587 55.3029 24.4692 55.5235C27.6484 56.3183 30.6264 56.1195 33.167 55.0055C33.1827 55.4574 33.1947 55.8891 33.2048 56.2619C33.2217 56.8666 33.2385 57.4595 33.2606 58.014C33.4112 61.7631 33.6663 64.6783 34.422 66.718C34.4635 66.8301 34.5193 67.0011 34.5782 67.1825C34.9552 68.3369 35.5857 70.2695 37.1897 71.783C38.8507 73.3509 40.8598 73.8316 42.6999 73.8316C43.6228 73.8316 44.5033 73.7105 45.2756 73.5451C48.0284 72.955 51.155 72.0563 53.4167 68.8359C55.555 65.7915 56.5945 61.2061 56.7826 53.9811C56.807 53.7768 56.8294 53.5817 56.851 53.3958L56.8959 53.014L57.3996 53.0583L57.5294 53.067C60.3333 53.1948 63.7617 52.6002 65.8673 51.6222C67.531 50.8501 72.8626 48.0353 71.6073 44.2352Z" fill="black"/>
<path d="M66.8137 44.9734C58.4766 46.6933 57.9033 43.8706 57.9033 43.8706C66.7057 30.8092 70.3856 14.2296 67.2103 10.1718C58.547 -0.897052 43.5507 4.33784 43.3004 4.47352L43.2199 4.4881C41.5727 4.1461 39.7295 3.94258 37.6576 3.90866C33.8855 3.84698 31.0238 4.89766 28.8524 6.54432C28.8524 6.54432 2.10045 -4.47659 3.34484 20.405C3.60947 25.6982 10.9317 60.4567 19.6651 49.958C22.8573 46.1189 25.9417 42.8729 25.9417 42.8729C27.4735 43.8905 29.3074 44.4097 31.2299 44.2233L31.3793 44.0966C31.3328 44.5731 31.3541 45.0393 31.439 45.5913C29.1891 48.105 29.8504 48.5463 25.3528 49.4722C20.8016 50.4102 23.4751 52.0798 25.2207 52.5166C27.3369 53.0456 32.2326 53.7952 35.5405 49.1644L35.4088 49.6928C36.2901 50.399 36.9091 54.2855 36.8054 57.8089C36.7017 61.3321 36.6324 63.7511 37.3268 65.6405C38.0217 67.53 38.7139 71.7812 44.6266 70.5144C49.5669 69.4556 52.1271 66.712 52.4834 62.1353C52.736 58.8818 53.3082 59.3628 53.344 56.4538L53.8029 55.0768C54.3319 50.6664 53.887 49.2434 56.9306 49.9053L57.6707 49.9703C59.9105 50.0721 62.8428 49.6098 64.5637 48.8101C68.2691 47.0905 70.4669 44.2191 66.8131 44.9734H66.8137Z" fill="#336791"/>
<path d="M30.4183 22.7727C29.6671 22.6681 28.9867 22.7648 28.6425 23.0255C28.449 23.1722 28.389 23.342 28.3728 23.4589C28.3296 23.7687 28.5466 24.1113 28.68 24.2879C29.0573 24.788 29.6085 25.1317 30.154 25.2074C30.2331 25.2186 30.3118 25.2236 30.39 25.2236C31.2997 25.2236 32.127 24.5152 32.1998 23.9924C32.291 23.3375 31.3404 22.9011 30.4183 22.773V22.7727ZM55.3072 22.7934C55.2355 22.2801 54.3221 22.1338 53.4554 22.2543C52.5897 22.3749 51.7504 22.7657 51.8205 23.2801C51.8765 23.6801 52.5989 24.363 53.454 24.363C53.5263 24.363 53.5992 24.3582 53.6726 24.3479C54.2434 24.2688 54.6622 23.9063 54.8612 23.6975C55.164 23.379 55.3395 23.0241 55.3072 22.7934Z" fill="white"/>
<path d="M69.5871 44.7786C69.2692 43.8173 68.246 43.5081 66.5461 43.8591C61.4987 44.9008 59.6911 44.1792 59.0977 43.7422C63.0209 37.7655 66.2484 30.5408 67.9895 23.8003C68.8142 20.6073 69.2698 17.642 69.307 15.225C69.3482 12.5722 68.8964 10.6228 67.9645 9.43196C64.2075 4.63129 58.6934 2.05618 52.0188 1.98553C47.43 1.93395 43.5531 3.10826 42.8015 3.43849C41.2188 3.0449 39.4933 2.80326 37.6148 2.77242C34.1701 2.71664 31.1924 3.54137 28.7272 5.22251C27.6564 4.82388 24.8889 3.87384 21.5045 3.3286C15.6534 2.38669 11.0039 3.10041 7.68589 5.45098C3.72678 8.25597 1.89902 13.27 2.25308 20.3534C2.37222 22.7364 3.73014 30.0677 5.87299 37.0885C8.69368 46.3293 11.7599 51.5606 14.986 52.6368C15.3636 52.7627 15.7989 52.8507 16.2791 52.8507C17.456 52.8507 18.8988 52.3203 20.4 50.5155C22.231 48.319 24.125 46.1758 26.0798 44.0887C27.348 44.7693 28.7412 45.1494 30.1662 45.1876C30.169 45.2248 30.1726 45.2621 30.176 45.2991C29.9307 45.5916 29.6905 45.8884 29.4555 46.1892C28.4682 47.4425 28.2627 47.7035 25.0846 48.3578C24.1805 48.5445 21.7795 49.0393 21.7442 50.7224C21.7061 52.5614 24.5825 53.3337 24.9102 53.4155C26.0523 53.7015 27.1526 53.8425 28.2019 53.8425C30.7537 53.8425 32.9995 53.0037 34.7941 51.3809C34.7389 57.9367 35.0122 64.3967 35.7994 66.3649C36.4442 67.9762 38.0191 71.914 42.9938 71.9137C43.7238 71.9137 44.5272 71.8288 45.4111 71.6393C50.6031 70.5264 52.8578 68.2316 53.7299 63.1725C54.1967 60.4687 54.9976 54.0124 55.3743 50.5492C56.1693 50.7973 57.1928 50.9108 58.2993 50.9105C60.607 50.9105 63.2698 50.4202 64.9398 49.6451C66.8157 48.7738 70.201 46.636 69.5871 44.7786ZM57.2228 21.3766C57.2057 22.3989 57.065 23.3271 56.9159 24.2959C56.7552 25.3379 56.5893 26.4152 56.5475 27.723C56.5063 28.9957 56.6652 30.3188 56.8189 31.5985C57.1295 34.1832 57.4482 36.8441 56.2145 39.4697C56.0095 39.1065 55.827 38.7312 55.6678 38.3458C55.5145 37.9741 55.1815 37.377 54.7203 36.5506C52.9265 33.3335 48.7257 25.7999 50.8761 22.7258C51.5167 21.8108 53.1423 20.87 57.2228 21.3766ZM52.2767 4.05578C58.2572 4.18781 62.9881 6.42513 66.3375 10.7052C68.9064 13.9882 66.0776 28.9261 57.8883 41.8132C57.806 41.7085 57.7232 41.6041 57.64 41.5001L57.5362 41.3706C59.6525 37.8757 59.2387 34.4178 58.8703 31.3521C58.7189 30.094 58.576 28.9057 58.6124 27.7894C58.65 26.6064 58.8064 25.5916 58.9578 24.6105C59.1437 23.4014 59.3329 22.1503 59.2807 20.6755C59.3197 20.5207 59.3354 20.3379 59.3149 20.121C59.1818 18.7067 57.5671 14.474 54.276 10.643C52.4757 8.54751 49.8504 6.20255 46.2658 4.62092C47.8076 4.30135 49.916 4.00335 52.2767 4.05578ZM18.8114 49.1946C17.1574 51.1833 16.0154 50.802 15.6397 50.677C13.1924 49.8607 10.3527 44.688 7.84904 36.4855C5.68264 29.3881 4.41667 22.2512 4.31631 20.2499C4.0001 13.9206 5.53435 9.50961 8.87673 7.13913C14.3163 3.28178 23.2594 5.59059 26.8529 6.76153C26.8013 6.81255 26.7475 6.8602 26.6965 6.91206C20.7995 12.8674 20.9394 23.0423 20.9539 23.6643C20.9534 23.9043 20.9736 24.2441 21.001 24.7114C21.1025 26.4228 21.2915 29.6079 20.7869 33.2149C20.3181 36.5668 21.3514 39.8475 23.6213 42.2161C23.8542 42.4587 24.0991 42.6896 24.3549 42.9079C23.3446 43.99 21.1488 46.3829 18.8114 49.1946ZM25.1129 40.7867C23.2835 38.8776 22.4526 36.2223 22.833 33.5009C23.3656 29.6906 23.1691 26.3721 23.0634 24.5891C23.0486 24.3397 23.0354 24.121 23.0278 23.9486C23.8893 23.1847 27.8815 21.0458 30.7285 21.6981C32.0276 21.9955 32.8192 22.8803 33.1483 24.4019C34.8516 32.28 33.3737 35.5635 32.1862 38.2023C31.9415 38.7458 31.7102 39.2597 31.5129 39.7912L31.3598 40.2022C30.9724 41.2411 30.6119 42.2071 30.3885 43.1243C28.4435 43.1187 26.5516 42.2878 25.1129 40.7864V40.7867ZM25.4115 51.4112C24.8435 51.2693 24.3328 51.0229 24.0331 50.8186C24.2834 50.7008 24.7289 50.5405 25.5015 50.3812C29.2402 49.6117 29.8177 49.0685 31.0786 47.4675C31.3677 47.1003 31.6954 46.6842 32.1492 46.1774L32.1498 46.1768C32.8257 45.42 33.1349 45.5483 33.6955 45.781C34.1499 45.9688 34.5926 46.5385 34.772 47.1653C34.8569 47.4613 34.9522 48.0231 34.6402 48.4604C32.0062 52.1484 28.168 52.1011 25.4115 51.4112ZM44.9783 69.6192C40.4044 70.5993 38.7849 68.2655 37.7177 65.5976C37.0289 63.8752 36.6903 56.1084 36.9305 47.5311C36.9336 47.417 36.9174 47.3069 36.886 47.2031C36.8579 46.9983 36.8152 46.7958 36.7581 46.5971C36.401 45.349 35.5306 44.3051 34.4863 43.8723C34.0714 43.7004 33.3101 43.385 32.3951 43.6191C32.5902 42.8151 32.9285 41.9071 33.2955 40.924L33.4494 40.5105C33.6226 40.0443 33.8402 39.5613 34.07 39.05C35.3127 36.2893 37.0146 32.5079 35.1675 23.9654C34.4757 20.7657 32.1652 19.2032 28.6627 19.5662C26.5631 19.7834 24.642 20.6306 23.6838 21.1164C23.4778 21.2207 23.2894 21.3216 23.1133 21.4197C23.3808 18.1959 24.3911 12.1711 28.1705 8.35913C30.5502 5.9595 33.7194 4.77426 37.5806 4.83818C45.1888 4.96265 50.0677 8.86709 52.8211 12.1209C55.1938 14.9245 56.4785 17.7488 56.9913 19.2721C53.1353 18.8799 50.5128 19.641 49.1835 21.5417C46.2913 25.676 50.7657 33.7002 52.9161 37.5567C53.3105 38.2634 53.6509 38.8742 53.7579 39.1338C54.4582 40.8309 55.3648 41.964 56.0267 42.791C56.2296 43.0444 56.4264 43.2903 56.5761 43.505C55.4082 43.8417 53.3105 44.6196 53.5017 48.5081C53.3475 50.4592 52.2512 59.594 51.6941 62.8215C50.9588 67.0853 49.3898 68.6734 44.9783 69.6195V69.6192ZM64.0699 47.7714C62.8757 48.3256 60.8772 48.7413 58.9788 48.8307C56.8819 48.9289 55.8144 48.5958 55.5633 48.3909C55.4455 45.9677 56.3474 45.7146 57.3019 45.4466C57.4519 45.4045 57.5982 45.3633 57.7395 45.314C57.8272 45.3855 57.9234 45.4564 58.0288 45.5259C59.7141 46.6383 62.7201 46.7583 66.964 45.8822L67.0106 45.873C66.4381 46.4081 65.4587 47.1263 64.0699 47.7714Z" fill="white"/>
</svg>
