<svg width="76" height="74" viewBox="0 0 76 74" fill="none" xmlns="http://www.w3.org/2000/svg">
<path d="M37.7322 0.0209961C18.8965 0.0209961 20.0726 8.18925 20.0726 8.18925L20.0935 16.6518H38.068V19.1925H12.9543C12.9543 19.1925 0.901367 17.8256 0.901367 36.8306C0.901367 55.8362 11.4215 55.1622 11.4215 55.1622H17.6998V46.3428C17.6998 46.3428 17.3614 35.8228 28.052 35.8228H45.8795C45.8795 35.8228 55.8955 35.9846 55.8955 26.1426V9.86939C55.8955 9.86939 57.4168 0.0209961 37.7322 0.0209961ZM27.821 5.7119C28.2458 5.71152 28.6664 5.7949 29.0589 5.95727C29.4514 6.11964 29.808 6.35781 30.1084 6.65815C30.4087 6.95849 30.6469 7.31512 30.8093 7.70761C30.9716 8.1001 31.055 8.52075 31.0546 8.94551C31.055 9.37025 30.9716 9.79091 30.8093 10.1834C30.6469 10.5759 30.4087 10.9325 30.1084 11.2329C29.808 11.5332 29.4514 11.7714 29.0589 11.9337C28.6664 12.0961 28.2458 12.1795 27.821 12.1791C27.3963 12.1795 26.9756 12.0961 26.5831 11.9337C26.1906 11.7714 25.834 11.5332 25.5337 11.2329C25.2333 10.9325 24.9952 10.5759 24.8328 10.1834C24.6704 9.79091 24.587 9.37025 24.5874 8.94551C24.587 8.52075 24.6704 8.1001 24.8328 7.70761C24.9952 7.31512 25.2333 6.95849 25.5337 6.65815C25.834 6.35781 26.1906 6.11964 26.5831 5.95727C26.9756 5.7949 27.3963 5.71152 27.821 5.7119Z" fill="url(#paint0_linear_104_679)"/>
<path d="M38.269 73.8316C57.1047 73.8316 55.9286 65.6634 55.9286 65.6634L55.9077 57.2011H37.9329V54.6604H63.0466C63.0466 54.6604 75.0996 56.0274 75.0996 37.0218C75.0996 18.0164 64.5795 18.6905 64.5795 18.6905H58.3011V27.5095C58.3011 27.5095 58.6396 38.0296 47.9489 38.0296H30.1214C30.1214 38.0296 20.1054 37.8678 20.1054 47.7101V63.9835C20.1054 63.9835 18.5844 73.8316 38.2687 73.8316H38.269ZM48.1802 68.1413C47.7554 68.1417 47.3348 68.0583 46.9423 67.896C46.5498 67.7336 46.1932 67.4954 45.8928 67.1951C45.5925 66.8947 45.3543 66.5381 45.1919 66.1456C45.0296 65.7531 44.9462 65.3325 44.9466 64.9077C44.9462 64.4829 45.0295 64.0623 45.1919 63.6697C45.3542 63.2772 45.5924 62.9205 45.8927 62.6202C46.1931 62.3198 46.5497 62.0816 46.9422 61.9192C47.3347 61.7568 47.7554 61.6734 48.1802 61.6738C48.6049 61.6734 49.0256 61.7568 49.4181 61.9192C49.8106 62.0816 50.1672 62.3197 50.4675 62.6201C50.7679 62.9204 51.0061 63.277 51.1684 63.6695C51.3308 64.062 51.4142 64.4827 51.4138 64.9074C51.4142 65.3322 51.3308 65.7528 51.1684 66.1453C51.0061 66.5378 50.7679 66.8944 50.4675 67.1948C50.1672 67.4951 49.8106 67.7333 49.4181 67.8957C49.0256 68.058 48.6049 68.1414 48.1802 68.141V68.1413Z" fill="url(#paint1_linear_104_679)"/>
<defs>
<linearGradient id="paint0_linear_104_679" x1="8.0316" y1="6.6598" x2="44.801" y2="43.0624" gradientUnits="userSpaceOnUse">
<stop stop-color="#387EB8"/>
<stop offset="1" stop-color="#366994"/>
</linearGradient>
<linearGradient id="paint1_linear_104_679" x1="30.6026" y1="30.0356" x2="70.0887" y2="67.3631" gradientUnits="userSpaceOnUse">
<stop stop-color="#FFE052"/>
<stop offset="1" stop-color="#FFC331"/>
</linearGradient>
</defs>
</svg>
