<svg width="84" height="74" viewBox="0 0 84 74" fill="none" xmlns="http://www.w3.org/2000/svg">
<path d="M68.7291 23.9445C67.8463 23.6416 66.9559 23.361 66.0589 23.1029C66.2096 22.4872 66.3483 21.8789 66.4714 21.2814C68.4929 11.4684 67.1714 3.56294 62.6575 0.960072C58.3297 -1.53521 51.2518 1.06669 44.1036 7.28771C43.3992 7.90192 42.7103 8.53383 42.0377 9.18283C41.5875 8.75126 41.1293 8.32807 40.6634 7.91348C33.1717 1.26177 25.6626 -1.54169 21.1536 1.06863C16.8296 3.57169 15.5492 11.0034 17.3692 20.3034C17.5502 21.2244 17.7547 22.1407 17.9823 23.0514C16.9194 23.3534 15.8937 23.6749 14.9121 24.0171C6.12873 27.0795 0.519531 31.8785 0.519531 36.8565C0.519531 41.9977 6.54126 47.1545 15.6895 50.2814C16.4312 50.5338 17.179 50.7678 17.9324 50.983C17.6877 51.9638 17.4705 52.9513 17.281 53.9443C15.546 63.0828 16.9009 70.3389 21.2132 72.8261C25.6671 75.3946 33.1426 72.7548 40.4213 66.3918C41.0116 65.8745 41.5888 65.3426 42.1525 64.7965C42.8808 65.4992 43.6286 66.1815 44.395 66.8426C51.4459 72.9097 58.4094 75.3596 62.7175 72.8656C67.1672 70.2896 68.6134 62.4946 66.7358 53.011C66.5879 52.268 66.4221 51.5287 66.2384 50.7937C66.7634 50.6382 67.2786 50.4781 67.7809 50.3115C77.2915 47.1607 83.4795 42.0664 83.4795 36.8565C83.4795 31.8604 77.6891 27.0289 68.7291 23.9445ZM66.6665 46.9478C66.2128 47.0978 65.7474 47.2426 65.273 47.3836C64.2231 44.0597 62.8063 40.5255 61.0722 36.8736C62.7269 33.3089 64.0892 29.8198 65.1097 26.5176C65.9584 26.7632 66.7818 27.0221 67.5758 27.2953C75.2528 29.9384 79.9355 33.8456 79.9355 36.8565C79.9355 40.0634 74.8782 44.2266 66.6665 46.9478ZM63.2593 53.6993C64.0895 57.8926 64.2078 61.6842 63.6579 64.6484C63.164 67.3118 62.1704 69.0874 60.9416 69.7987C58.3274 71.3121 52.7363 69.345 46.7065 64.1561C45.9937 63.5415 45.2981 62.9072 44.6205 62.2539C46.9583 59.6973 49.2945 56.7254 51.5746 53.4245C55.5852 53.0686 59.3741 52.4866 62.8101 51.6924C62.9757 52.3577 63.1254 53.0268 63.2593 53.6993ZM28.8024 69.5372C26.2481 70.439 24.2137 70.465 22.9839 69.7559C20.3671 68.2467 19.2792 62.4204 20.7631 54.6053C20.9394 53.6819 21.1414 52.7634 21.3687 51.8511C24.7668 52.603 28.5282 53.1435 32.5482 53.4695C34.8439 56.6994 37.2475 59.6682 39.6698 62.2678C39.155 62.7659 38.6281 63.2513 38.0894 63.7235C34.8705 66.537 31.6451 68.5332 28.8024 69.5372ZM16.8361 46.928C12.7908 45.5452 9.45004 43.7483 7.16022 41.7874C5.10242 40.0255 4.0638 38.2758 4.0638 36.8565C4.0638 33.8355 8.5673 29.9824 16.0787 27.3637C16.9903 27.0461 17.9444 26.7464 18.9344 26.4651C19.9727 29.8418 21.3344 33.3725 22.9777 36.9426C21.313 40.5657 19.9318 44.1527 18.8835 47.5693C18.1959 47.3723 17.5132 47.1585 16.8361 46.928ZM20.8473 19.6225C19.2882 11.6548 20.3236 5.64439 22.9294 4.13588C25.7047 2.52918 31.8418 4.81998 38.3104 10.5637C38.7322 10.939 39.1472 11.322 39.5551 11.7125C37.1447 14.3007 34.7632 17.2474 32.488 20.4583C28.5862 20.8199 24.8514 21.4006 21.4177 22.1787C21.2061 21.3317 21.0159 20.4794 20.8473 19.6228V19.6225ZM56.6325 28.459C55.8215 27.0581 54.9804 25.6748 54.1097 24.3101C56.7567 24.6448 59.2928 25.0891 61.6743 25.6322C60.9594 27.924 60.0683 30.3198 59.0193 32.7762C58.2525 31.3214 57.4568 29.882 56.6325 28.459ZM42.0394 14.2453C43.6739 16.0163 45.3111 17.9934 46.9214 20.1387C43.6548 19.9845 40.3828 19.9838 37.1162 20.1368C38.7281 18.0113 40.3792 16.0367 42.0394 14.2453ZM27.3525 28.4833C26.5386 29.8949 25.7577 31.3253 25.0105 32.7733C23.9787 30.3256 23.0957 27.9188 22.3746 25.5946C24.7416 25.0651 27.2657 24.6322 29.8958 24.3036C29.0154 25.6766 28.1675 27.0701 27.3525 28.483V28.4833ZM29.9713 49.6615C27.254 49.3581 24.692 48.9475 22.3257 48.4323C23.0581 46.0666 23.9606 43.6086 25.0148 41.1085C25.7649 42.5576 26.549 43.9888 27.3665 45.401C28.2071 46.8528 29.0775 48.2748 29.9713 49.6615ZM42.1372 59.7171C40.4573 57.9049 38.7819 55.9 37.1457 53.7437C38.7343 53.8059 40.3536 53.8376 41.9995 53.8376C43.6905 53.8376 45.362 53.7997 47.0072 53.7265C45.3918 55.9217 43.7608 57.9296 42.1372 59.7171ZM59.0526 40.9808C60.1616 43.5085 61.0962 45.9535 61.8383 48.2787C59.4331 48.8276 56.8361 49.2697 54.0997 49.5979C54.9765 48.2079 55.8256 46.8005 56.6465 45.3767C57.481 43.9294 58.2833 42.4638 59.0526 40.9808ZM53.5766 43.606C52.32 45.789 50.9927 47.9306 49.5968 50.0273C47.0684 50.2064 44.5343 50.2954 41.9995 50.294C39.4177 50.294 36.9065 50.2136 34.4884 50.0568C33.0561 47.9649 31.7035 45.8196 30.4334 43.6255H30.4337C29.1696 41.4429 27.9889 39.2132 26.894 36.941C27.9861 34.6683 29.1632 32.4375 30.423 30.2534L30.4227 30.2537C31.682 28.0689 33.0238 25.9328 34.4453 23.8499C36.9124 23.6632 39.4423 23.566 41.9992 23.566H41.9995C44.568 23.566 47.1012 23.6642 49.5677 23.8522C50.9748 25.9319 52.308 28.0607 53.565 30.2346C54.8289 32.4139 56.0217 34.6339 57.1413 36.8908C56.0332 39.1708 54.8442 41.4106 53.5766 43.606ZM60.8875 4.03024C63.6653 5.6324 64.7458 12.0932 63.0004 20.5658C62.8889 21.1064 62.7638 21.657 62.6277 22.2153C59.1855 21.4207 55.4481 20.83 51.535 20.4628C49.2556 17.2167 46.8935 14.2654 44.5223 11.7105C45.1438 11.1115 45.78 10.528 46.4304 9.96058C52.5552 4.63073 58.2794 2.52627 60.8875 4.03024ZM41.9995 29.4484C46.0908 29.4484 49.4076 32.7652 49.4076 36.8565C49.4076 40.9477 46.0908 44.2645 41.9995 44.2645C37.9082 44.2645 34.5914 40.9477 34.5914 36.8565C34.5914 32.7652 37.9082 29.4484 41.9995 29.4484Z" fill="#00D8FF"/>
</svg>
