<svg width="88" height="74" viewBox="0 0 88 74" fill="none" xmlns="http://www.w3.org/2000/svg">
<path d="M83.8354 56.8712C79.2222 59.2758 55.3245 69.1017 50.2368 71.7541C45.1491 74.4068 42.3228 74.3812 38.3034 72.4598C34.2845 70.5385 8.85307 60.2658 4.27187 58.076C1.98246 56.982 0.77832 56.0581 0.77832 55.1856V46.448C0.77832 46.448 33.887 39.2404 39.232 37.3227C44.5767 35.4051 46.4312 35.3359 50.9796 37.0019C55.5288 38.6687 82.7269 43.5757 87.2223 45.2222L87.2203 53.8362C87.2209 54.7 86.1836 55.6475 83.8354 56.8712Z" fill="#912626"/>
<path d="M83.8337 48.1852C79.2207 50.5888 55.3237 60.415 50.236 63.0671C45.1487 65.7202 42.3223 65.6942 38.3034 63.7729C34.2841 61.8529 8.85367 51.5785 4.27281 49.3901C-0.308046 47.2003 -0.403944 45.6932 4.09587 43.9313C8.59568 42.1686 33.8866 32.2461 39.2323 30.3285C44.577 28.4115 46.4311 28.3416 50.9796 30.0084C55.5283 31.6744 79.2829 41.1296 83.7776 42.7757C88.2741 44.4239 88.4466 45.781 83.8337 48.1852Z" fill="#C6302B"/>
<path d="M83.8354 42.7328C79.2222 45.1377 55.3245 54.9633 50.2368 57.6167C45.1491 60.2685 42.3228 60.2428 38.3034 58.3214C34.2841 56.4011 8.85307 46.1274 4.27187 43.9376C1.98246 42.8436 0.77832 41.9211 0.77832 41.0482V32.3096C0.77832 32.3096 33.887 25.1023 39.232 23.1847C44.5767 21.267 46.4312 21.1975 50.9796 22.8639C55.5291 24.5303 82.7272 29.4363 87.2223 31.0831L87.2203 39.6982C87.2209 40.5616 86.1836 41.5091 83.8354 42.7328Z" fill="#912626"/>
<path d="M83.8337 34.0474C79.2207 36.4516 55.3237 46.2772 50.236 48.9303C45.1487 51.5823 42.3223 51.5563 38.3034 49.635C34.2841 47.715 8.85367 37.441 4.27281 35.2522C-0.308046 33.0631 -0.403944 31.5557 4.09587 29.7931C8.59568 28.0314 33.887 18.1083 39.2323 16.191C44.577 14.2737 46.4311 14.2041 50.9796 15.8705C55.5283 17.5366 79.2829 26.9911 83.7776 28.6379C88.2741 30.2857 88.4466 31.6432 83.8337 34.0474Z" fill="#C6302B"/>
<path d="M83.8354 28.0708C79.2222 30.475 55.3245 40.3012 50.2368 42.9547C45.1491 45.6067 42.3228 45.5807 38.3034 43.6594C34.2841 41.739 8.85307 31.465 4.27187 29.2763C1.98246 28.1812 0.77832 27.2583 0.77832 26.3865V17.6475C0.77832 17.6475 33.887 10.4406 39.232 8.52328C44.5767 6.6053 46.4312 6.53642 50.9796 8.20249C55.5291 9.8689 82.7272 14.7749 87.2223 16.4218L87.2203 25.0364C87.2209 25.8992 86.1836 26.8467 83.8354 28.0708Z" fill="#912626"/>
<path d="M83.8335 19.3851C79.2206 21.7893 55.3236 31.6156 50.2359 34.2677C45.1485 36.9197 42.3222 36.8937 38.3032 34.9734C34.2842 33.052 8.8535 22.7787 4.27298 20.5896C-0.308214 18.4008 -0.403775 16.8931 4.0957 15.1308C8.59552 13.3688 33.8868 3.44701 39.2321 1.52903C44.5768 -0.388607 46.431 -0.457492 50.9794 1.20892C55.5282 2.87533 79.2827 12.3298 83.7775 13.9766C88.2739 15.6231 88.4464 16.9809 83.8335 19.3851Z" fill="#C6302B"/>
<path d="M54.5631 10.885L47.1309 11.6566L45.4672 15.66L42.78 11.1926L34.1981 10.4214L40.6017 8.11202L38.6803 4.56714L44.6757 6.91193L50.3276 5.06149L48.8 8.72692L54.5631 10.885ZM45.0235 30.3072L31.1529 24.5543L51.0283 21.5034L45.0235 30.3072ZM25.7931 13.1102C31.6601 13.1102 36.4162 14.9539 36.4162 17.2278C36.4162 19.5024 31.6601 21.3457 25.7931 21.3457C19.926 21.3457 15.1699 19.502 15.1699 17.2278C15.1699 14.9539 19.926 13.1102 25.7931 13.1102Z" fill="white"/>
<path d="M63.3467 11.9791L75.1098 16.6275L63.3568 21.2715L63.3467 11.9788" fill="#621B1C"/>
<path d="M50.334 17.1271L63.3479 11.9792L63.358 21.2716L62.0819 21.7707L50.334 17.1271Z" fill="#9A2928"/>
</svg>
