<svg width="103" height="103" viewBox="0 0 103 103" fill="none" xmlns="http://www.w3.org/2000/svg">
<circle cx="51.3969" cy="51.6727" r="51.0355" fill="#0D7375"/>
<mask id="mask0_104_657" style="mask-type:alpha" maskUnits="userSpaceOnUse" x="9" y="9" width="83" height="84">
<rect x="9.64258" y="9.91797" width="82.1022" height="82.1022" fill="white"/>
</mask>
<g mask="url(#mask0_104_657)">
<path d="M30.1681 81.7574C27.6024 81.7574 25.0652 81.1302 22.5565 79.8759C20.0478 78.6215 18.0238 76.9681 16.4844 74.9155C17.9668 74.9155 19.4777 74.3317 21.0171 73.164C22.5565 71.9941 23.3262 70.2973 23.3262 68.0737C23.3262 65.2229 24.324 62.7998 26.3195 60.8042C28.3151 58.8087 30.7382 57.8109 33.589 57.8109C36.4398 57.8109 38.8629 58.8087 40.8585 60.8042C42.854 62.7998 43.8518 65.2229 43.8518 68.0737C43.8518 71.8367 42.5119 75.0581 39.8322 77.7378C37.1525 80.4175 33.9311 81.7574 30.1681 81.7574ZM30.1681 74.9155C32.0496 74.9155 33.6597 74.2462 34.9984 72.9074C36.3394 71.5664 37.0099 69.9552 37.0099 68.0737C37.0099 67.1044 36.6826 66.2925 36.0281 65.638C35.3713 64.9812 34.5583 64.6528 33.589 64.6528C32.6197 64.6528 31.8067 64.9812 31.1499 65.638C30.4953 66.2925 30.1681 67.1044 30.1681 68.0737C30.1681 69.385 30.0118 70.5824 29.6994 71.6656C29.3847 72.7489 28.9707 73.7752 28.4576 74.7445C28.7427 74.8585 29.0278 74.9155 29.3128 74.9155H30.1681ZM49.8384 61.2318L40.4308 51.8243L71.0481 21.207C71.6753 20.5799 72.4598 20.2514 73.4017 20.2218C74.3413 20.1944 75.1532 20.5228 75.8374 21.207L80.4557 25.8253C81.1398 26.5095 81.4819 27.3077 81.4819 28.2199C81.4819 29.1322 81.1398 29.9304 80.4557 30.6146L49.8384 61.2318Z" fill="white"/>
</g>
</svg>
