<svg width="103" height="103" viewBox="0 0 103 103" fill="none" xmlns="http://www.w3.org/2000/svg">
<circle cx="51.3974" cy="51.6727" r="51.0355" fill="#0D7375"/>
<mask id="mask0_104_649" style="mask-type:alpha" maskUnits="userSpaceOnUse" x="18" y="19" width="65" height="64">
<rect x="18.7251" y="19" width="63.9381" height="63.9381" fill="white"/>
</mask>
<g mask="url(#mask0_104_649)">
<path d="M24.0532 74.9458C23.2984 74.9458 22.6661 74.69 22.1564 74.1785C21.6449 73.6688 21.3892 73.0365 21.3892 72.2817C21.3892 71.5269 21.6449 70.8946 22.1564 70.3849C22.6661 69.8733 23.2984 69.6176 24.0532 69.6176H77.335C78.0898 69.6176 78.7221 69.8733 79.2318 70.3849C79.7433 70.8946 79.9991 71.5269 79.9991 72.2817C79.9991 73.0365 79.7433 73.6688 79.2318 74.1785C78.7221 74.69 78.0898 74.9458 77.335 74.9458H24.0532ZM29.3814 66.9535C27.9162 66.9535 26.6623 66.4322 25.6197 65.3897C24.5754 64.3454 24.0532 63.0906 24.0532 61.6253V32.3204C24.0532 30.8551 24.5754 29.6003 25.6197 28.556C26.6623 27.5135 27.9162 26.9922 29.3814 26.9922H72.0068C73.4721 26.9922 74.7269 27.5135 75.7712 28.556C76.8137 29.6003 77.335 30.8551 77.335 32.3204V61.6253C77.335 63.0906 76.8137 64.3454 75.7712 65.3897C74.7269 66.4322 73.4721 66.9535 72.0068 66.9535H29.3814ZM29.3814 61.6253H72.0068V32.3204H29.3814V61.6253Z" fill="white"/>
</g>
</svg>
